<mxfile host="app.diagrams.net" modified="2021-02-09T17:38:47.329Z" agent="5.0 (Windows NT 10.0; Win64; x64) AppleWebKit/537.36 (KHTML, like Gecko) Chrome/87.0.4280.88 YaBrowser/20.12.2.108 Yowser/2.5 Safari/537.36" etag="2miyZuSxxtlTBe3AELkj" version="14.2.3" type="github">
  <diagram id="xEeoVOMokPCUPzb6GTdT" name="Page-1">
    <mxGraphModel dx="1824" dy="1016" grid="1" gridSize="10" guides="1" tooltips="1" connect="1" arrows="1" fold="1" page="1" pageScale="1" pageWidth="1169" pageHeight="827" math="0" shadow="0">
      <root>
        <mxCell id="0" />
        <mxCell id="1" parent="0" />
        <mxCell id="AmRJrW9hrM3cdkwGH1nl-7" style="edgeStyle=orthogonalEdgeStyle;rounded=0;orthogonalLoop=1;jettySize=auto;html=1;entryX=0;entryY=0.5;entryDx=0;entryDy=0;fontSize=24;" parent="1" source="AmRJrW9hrM3cdkwGH1nl-1" target="AmRJrW9hrM3cdkwGH1nl-3" edge="1">
          <mxGeometry relative="1" as="geometry">
            <Array as="points">
              <mxPoint x="210" y="485" />
              <mxPoint x="210" y="414" />
            </Array>
          </mxGeometry>
        </mxCell>
        <mxCell id="AmRJrW9hrM3cdkwGH1nl-8" style="edgeStyle=orthogonalEdgeStyle;rounded=0;orthogonalLoop=1;jettySize=auto;html=1;entryX=0;entryY=0.5;entryDx=0;entryDy=0;fontSize=24;" parent="1" source="AmRJrW9hrM3cdkwGH1nl-1" target="AmRJrW9hrM3cdkwGH1nl-5" edge="1">
          <mxGeometry relative="1" as="geometry">
            <Array as="points">
              <mxPoint x="210" y="485" />
              <mxPoint x="210" y="250" />
            </Array>
          </mxGeometry>
        </mxCell>
        <mxCell id="AmRJrW9hrM3cdkwGH1nl-9" style="edgeStyle=orthogonalEdgeStyle;rounded=0;orthogonalLoop=1;jettySize=auto;html=1;entryX=0;entryY=0.5;entryDx=0;entryDy=0;fontSize=24;" parent="1" source="AmRJrW9hrM3cdkwGH1nl-1" target="AmRJrW9hrM3cdkwGH1nl-6" edge="1">
          <mxGeometry relative="1" as="geometry">
            <Array as="points">
              <mxPoint x="210" y="485" />
              <mxPoint x="210" y="560" />
            </Array>
          </mxGeometry>
        </mxCell>
        <mxCell id="AmRJrW9hrM3cdkwGH1nl-10" style="edgeStyle=orthogonalEdgeStyle;rounded=0;orthogonalLoop=1;jettySize=auto;html=1;entryX=0;entryY=0.5;entryDx=0;entryDy=0;fontSize=24;" parent="1" source="AmRJrW9hrM3cdkwGH1nl-1" target="AmRJrW9hrM3cdkwGH1nl-4" edge="1">
          <mxGeometry relative="1" as="geometry">
            <Array as="points">
              <mxPoint x="210" y="485" />
              <mxPoint x="210" y="750" />
            </Array>
          </mxGeometry>
        </mxCell>
        <mxCell id="AmRJrW9hrM3cdkwGH1nl-1" value="Администратор" style="verticalLabelPosition=bottom;html=1;verticalAlign=top;align=center;strokeColor=none;fillColor=#00BEF2;shape=mxgraph.azure.user;" parent="1" vertex="1">
          <mxGeometry x="60" y="440" width="87.5" height="90" as="geometry" />
        </mxCell>
        <mxCell id="AmRJrW9hrM3cdkwGH1nl-2" value="&lt;span style=&quot;font-size: 20px ; font-family: &amp;#34;times new roman&amp;#34; , serif&quot;&gt;База данных учета результатов интеллектуальной&lt;br&gt;деятельности сотрудников предприятия «Российские космические системы&lt;/span&gt;&lt;span style=&quot;font-family: &amp;#34;times new roman&amp;#34; , serif&quot;&gt;&lt;font style=&quot;font-size: 20px&quot;&gt;»&lt;/font&gt;&lt;/span&gt;" style="text;html=1;strokeColor=none;fillColor=none;align=center;verticalAlign=middle;whiteSpace=wrap;rounded=0;fontSize=24;" parent="1" vertex="1">
          <mxGeometry x="250" y="60" width="660" height="70" as="geometry" />
        </mxCell>
        <mxCell id="AmRJrW9hrM3cdkwGH1nl-3" value="&lt;font style=&quot;font-size: 18px&quot;&gt;Авторизация&lt;/font&gt;" style="ellipse;whiteSpace=wrap;html=1;fontSize=24;" parent="1" vertex="1">
          <mxGeometry x="240" y="374" width="160" height="80" as="geometry" />
        </mxCell>
        <mxCell id="AmRJrW9hrM3cdkwGH1nl-4" value="&lt;font style=&quot;font-size: 18px&quot;&gt;Подготовка отчетности&lt;/font&gt;" style="ellipse;whiteSpace=wrap;html=1;fontSize=24;" parent="1" vertex="1">
          <mxGeometry x="240" y="710" width="160" height="80" as="geometry" />
        </mxCell>
        <mxCell id="AmRJrW9hrM3cdkwGH1nl-5" value="&lt;font style=&quot;font-size: 16px&quot;&gt;Подготовительная работа&lt;/font&gt;" style="ellipse;whiteSpace=wrap;html=1;fontSize=24;" parent="1" vertex="1">
          <mxGeometry x="240" y="210" width="160" height="80" as="geometry" />
        </mxCell>
        <mxCell id="AmRJrW9hrM3cdkwGH1nl-6" value="&lt;font style=&quot;font-size: 18px&quot;&gt;Учет патентов&lt;/font&gt;" style="ellipse;whiteSpace=wrap;html=1;fontSize=24;" parent="1" vertex="1">
          <mxGeometry x="240" y="520" width="160" height="80" as="geometry" />
        </mxCell>
        <mxCell id="mRenL1SqsLe3a1s-qJtR-4" style="edgeStyle=orthogonalEdgeStyle;rounded=0;orthogonalLoop=1;jettySize=auto;html=1;entryX=1;entryY=0.5;entryDx=0;entryDy=0;dashed=1;fontSize=24;" parent="1" source="AmRJrW9hrM3cdkwGH1nl-12" target="AmRJrW9hrM3cdkwGH1nl-5" edge="1">
          <mxGeometry relative="1" as="geometry">
            <mxPoint x="610" y="230" as="targetPoint" />
          </mxGeometry>
        </mxCell>
        <mxCell id="mRenL1SqsLe3a1s-qJtR-5" value="&lt;font style=&quot;font-size: 14px&quot;&gt;Extend&lt;/font&gt;" style="edgeLabel;html=1;align=center;verticalAlign=middle;resizable=0;points=[];fontSize=24;" parent="mRenL1SqsLe3a1s-qJtR-4" vertex="1" connectable="0">
          <mxGeometry x="-0.5356" relative="1" as="geometry">
            <mxPoint y="-7" as="offset" />
          </mxGeometry>
        </mxCell>
        <mxCell id="AmRJrW9hrM3cdkwGH1nl-12" value="&lt;span style=&quot;font-size: 14px&quot;&gt;Подготовка списка организаций&lt;/span&gt;" style="ellipse;whiteSpace=wrap;html=1;fontSize=24;fillColor=#dae8fc;strokeColor=#6c8ebf;" parent="1" vertex="1">
          <mxGeometry x="540" y="250" width="310" height="66" as="geometry" />
        </mxCell>
        <mxCell id="mRenL1SqsLe3a1s-qJtR-6" style="edgeStyle=orthogonalEdgeStyle;rounded=0;orthogonalLoop=1;jettySize=auto;html=1;entryX=0.5;entryY=1;entryDx=0;entryDy=0;dashed=1;fontSize=24;" parent="1" source="AmRJrW9hrM3cdkwGH1nl-13" target="AmRJrW9hrM3cdkwGH1nl-5" edge="1">
          <mxGeometry relative="1" as="geometry">
            <Array as="points">
              <mxPoint x="530" y="320" />
              <mxPoint x="320" y="320" />
            </Array>
          </mxGeometry>
        </mxCell>
        <mxCell id="mRenL1SqsLe3a1s-qJtR-7" value="&lt;font style=&quot;font-size: 14px&quot;&gt;Extend&lt;/font&gt;" style="edgeLabel;html=1;align=center;verticalAlign=middle;resizable=0;points=[];fontSize=24;" parent="mRenL1SqsLe3a1s-qJtR-6" vertex="1" connectable="0">
          <mxGeometry x="-0.2513" y="-2" relative="1" as="geometry">
            <mxPoint as="offset" />
          </mxGeometry>
        </mxCell>
        <mxCell id="AmRJrW9hrM3cdkwGH1nl-13" value="&lt;font style=&quot;font-size: 16px&quot;&gt;Изучение сведений о программе&lt;/font&gt;" style="ellipse;whiteSpace=wrap;html=1;fontSize=24;fillColor=#dae8fc;strokeColor=#6c8ebf;" parent="1" vertex="1">
          <mxGeometry x="440" y="330" width="180" height="70" as="geometry" />
        </mxCell>
        <mxCell id="mRenL1SqsLe3a1s-qJtR-8" style="edgeStyle=orthogonalEdgeStyle;rounded=0;orthogonalLoop=1;jettySize=auto;html=1;entryX=0.5;entryY=0;entryDx=0;entryDy=0;dashed=1;fontSize=24;" parent="1" source="mRenL1SqsLe3a1s-qJtR-1" target="AmRJrW9hrM3cdkwGH1nl-5" edge="1">
          <mxGeometry relative="1" as="geometry">
            <Array as="points">
              <mxPoint x="900" y="160" />
              <mxPoint x="320" y="160" />
            </Array>
            <mxPoint x="610" y="170" as="targetPoint" />
          </mxGeometry>
        </mxCell>
        <mxCell id="mRenL1SqsLe3a1s-qJtR-9" value="&lt;font style=&quot;font-size: 14px&quot;&gt;Extend&lt;/font&gt;" style="edgeLabel;html=1;align=center;verticalAlign=middle;resizable=0;points=[];fontSize=24;" parent="mRenL1SqsLe3a1s-qJtR-8" vertex="1" connectable="0">
          <mxGeometry x="0.1234" y="3" relative="1" as="geometry">
            <mxPoint x="5" y="-13" as="offset" />
          </mxGeometry>
        </mxCell>
        <mxCell id="mRenL1SqsLe3a1s-qJtR-1" value="&lt;font style=&quot;font-size: 14px&quot;&gt;Подготовка списка сотрудников и их патентов&lt;/font&gt;" style="ellipse;whiteSpace=wrap;html=1;fontSize=24;fillColor=#dae8fc;strokeColor=#6c8ebf;" parent="1" vertex="1">
          <mxGeometry x="770" y="180" width="260" height="70" as="geometry" />
        </mxCell>
        <mxCell id="mRenL1SqsLe3a1s-qJtR-12" value="&lt;font style=&quot;font-size: 14px&quot;&gt;Extend&lt;/font&gt;" style="edgeStyle=orthogonalEdgeStyle;rounded=0;orthogonalLoop=1;jettySize=auto;html=1;entryX=0.5;entryY=0;entryDx=0;entryDy=0;dashed=1;fontSize=24;" parent="1" source="mRenL1SqsLe3a1s-qJtR-10" target="AmRJrW9hrM3cdkwGH1nl-4" edge="1">
          <mxGeometry x="-0.9296" y="-220" relative="1" as="geometry">
            <Array as="points">
              <mxPoint x="540" y="690" />
              <mxPoint x="320" y="690" />
            </Array>
            <mxPoint x="219" y="210" as="offset" />
          </mxGeometry>
        </mxCell>
        <mxCell id="mRenL1SqsLe3a1s-qJtR-10" value="&lt;span style=&quot;font-size: 16px&quot;&gt;Копирование данных &lt;br&gt;в архив&lt;/span&gt;" style="ellipse;whiteSpace=wrap;html=1;fontSize=24;fillColor=#dae8fc;strokeColor=#6c8ebf;" parent="1" vertex="1">
          <mxGeometry x="450" y="698.75" width="180" height="91.25" as="geometry" />
        </mxCell>
        <mxCell id="mRenL1SqsLe3a1s-qJtR-14" style="edgeStyle=orthogonalEdgeStyle;rounded=0;orthogonalLoop=1;jettySize=auto;html=1;entryX=0.5;entryY=1;entryDx=0;entryDy=0;dashed=1;fontSize=24;" parent="1" source="mRenL1SqsLe3a1s-qJtR-11" target="AmRJrW9hrM3cdkwGH1nl-4" edge="1">
          <mxGeometry relative="1" as="geometry">
            <Array as="points">
              <mxPoint x="740" y="812" />
              <mxPoint x="320" y="812" />
            </Array>
          </mxGeometry>
        </mxCell>
        <mxCell id="mRenL1SqsLe3a1s-qJtR-15" value="&lt;font style=&quot;font-size: 14px&quot;&gt;Extend&lt;/font&gt;" style="edgeLabel;html=1;align=center;verticalAlign=middle;resizable=0;points=[];fontSize=24;" parent="mRenL1SqsLe3a1s-qJtR-14" vertex="1" connectable="0">
          <mxGeometry x="0.0435" relative="1" as="geometry">
            <mxPoint as="offset" />
          </mxGeometry>
        </mxCell>
        <mxCell id="mRenL1SqsLe3a1s-qJtR-11" value="&lt;font style=&quot;font-size: 14px&quot;&gt;Формирование отчета о количестве новых патентов за год&lt;/font&gt;" style="ellipse;whiteSpace=wrap;html=1;fontSize=24;fillColor=#dae8fc;strokeColor=#6c8ebf;" parent="1" vertex="1">
          <mxGeometry x="650" y="696.88" width="180" height="95" as="geometry" />
        </mxCell>
        <mxCell id="mRenL1SqsLe3a1s-qJtR-29" value="&lt;font style=&quot;font-size: 14px&quot;&gt;Include&lt;/font&gt;" style="edgeStyle=orthogonalEdgeStyle;rounded=0;orthogonalLoop=1;jettySize=auto;html=1;entryX=0.5;entryY=0;entryDx=0;entryDy=0;dashed=1;fontSize=14;exitX=0.5;exitY=0;exitDx=0;exitDy=0;" parent="1" source="mRenL1SqsLe3a1s-qJtR-19" target="mRenL1SqsLe3a1s-qJtR-17" edge="1">
          <mxGeometry relative="1" as="geometry">
            <mxPoint as="offset" />
            <mxPoint x="550" y="460" as="sourcePoint" />
            <Array as="points">
              <mxPoint x="605" y="450" />
              <mxPoint x="955" y="450" />
            </Array>
          </mxGeometry>
        </mxCell>
        <mxCell id="mRenL1SqsLe3a1s-qJtR-17" value="&lt;font style=&quot;font-size: 14px&quot;&gt;Печать информации о патентах&lt;/font&gt;" style="ellipse;whiteSpace=wrap;html=1;fontSize=14;fillColor=#dae8fc;strokeColor=#6c8ebf;" parent="1" vertex="1">
          <mxGeometry x="850" y="470" width="210" height="75" as="geometry" />
        </mxCell>
        <mxCell id="mRenL1SqsLe3a1s-qJtR-27" style="edgeStyle=orthogonalEdgeStyle;rounded=0;orthogonalLoop=1;jettySize=auto;html=1;dashed=1;fontSize=14;exitX=0;exitY=0.5;exitDx=0;exitDy=0;entryX=0.5;entryY=1;entryDx=0;entryDy=0;" parent="1" source="mRenL1SqsLe3a1s-qJtR-18" target="mRenL1SqsLe3a1s-qJtR-19" edge="1">
          <mxGeometry relative="1" as="geometry">
            <Array as="points">
              <mxPoint x="850" y="630" />
              <mxPoint x="605" y="630" />
            </Array>
            <mxPoint x="540" y="598" as="targetPoint" />
          </mxGeometry>
        </mxCell>
        <mxCell id="mRenL1SqsLe3a1s-qJtR-28" value="&lt;font style=&quot;font-size: 14px&quot;&gt;Extend&lt;/font&gt;" style="edgeLabel;html=1;align=center;verticalAlign=middle;resizable=0;points=[];fontSize=14;" parent="mRenL1SqsLe3a1s-qJtR-27" vertex="1" connectable="0">
          <mxGeometry x="-0.1069" y="-3" relative="1" as="geometry">
            <mxPoint x="-11" as="offset" />
          </mxGeometry>
        </mxCell>
        <mxCell id="mRenL1SqsLe3a1s-qJtR-18" value="&lt;span style=&quot;font-size: 16px&quot;&gt;Добавить патент&lt;/span&gt;" style="ellipse;whiteSpace=wrap;html=1;fontSize=24;fillColor=#dae8fc;strokeColor=#6c8ebf;" parent="1" vertex="1">
          <mxGeometry x="850" y="590" width="210" height="76" as="geometry" />
        </mxCell>
        <mxCell id="KuBR6iOyPzfFOeSipF9V-2" value="&lt;font style=&quot;font-size: 14px&quot;&gt;Extend&lt;/font&gt;" style="edgeStyle=orthogonalEdgeStyle;rounded=0;orthogonalLoop=1;jettySize=auto;html=1;dashed=1;" parent="1" source="mRenL1SqsLe3a1s-qJtR-19" target="AmRJrW9hrM3cdkwGH1nl-6" edge="1">
          <mxGeometry relative="1" as="geometry" />
        </mxCell>
        <mxCell id="mRenL1SqsLe3a1s-qJtR-19" value="&lt;font style=&quot;font-size: 14px&quot;&gt;Просмотр и редактирование данных о патентах&lt;/font&gt;" style="ellipse;whiteSpace=wrap;html=1;fontSize=24;fillColor=#dae8fc;strokeColor=#6c8ebf;" parent="1" vertex="1">
          <mxGeometry x="500" y="520" width="210" height="80" as="geometry" />
        </mxCell>
        <mxCell id="sYOH8Gzn-KAT3bSXsuVM-2" style="edgeStyle=orthogonalEdgeStyle;rounded=0;orthogonalLoop=1;jettySize=auto;html=1;entryX=0;entryY=0.5;entryDx=0;entryDy=0;fontSize=24;" edge="1" parent="1" source="sYOH8Gzn-KAT3bSXsuVM-6" target="sYOH8Gzn-KAT3bSXsuVM-7">
          <mxGeometry relative="1" as="geometry">
            <Array as="points">
              <mxPoint x="180" y="1235" />
              <mxPoint x="180" y="1164" />
            </Array>
          </mxGeometry>
        </mxCell>
        <mxCell id="sYOH8Gzn-KAT3bSXsuVM-3" style="edgeStyle=orthogonalEdgeStyle;rounded=0;orthogonalLoop=1;jettySize=auto;html=1;entryX=0;entryY=0.5;entryDx=0;entryDy=0;fontSize=24;" edge="1" parent="1" source="sYOH8Gzn-KAT3bSXsuVM-6" target="sYOH8Gzn-KAT3bSXsuVM-9">
          <mxGeometry relative="1" as="geometry">
            <Array as="points">
              <mxPoint x="180" y="1235" />
              <mxPoint x="180" y="1000" />
            </Array>
          </mxGeometry>
        </mxCell>
        <mxCell id="sYOH8Gzn-KAT3bSXsuVM-4" style="edgeStyle=orthogonalEdgeStyle;rounded=0;orthogonalLoop=1;jettySize=auto;html=1;entryX=0;entryY=0.5;entryDx=0;entryDy=0;fontSize=24;" edge="1" parent="1" source="sYOH8Gzn-KAT3bSXsuVM-6" target="sYOH8Gzn-KAT3bSXsuVM-10">
          <mxGeometry relative="1" as="geometry">
            <Array as="points">
              <mxPoint x="180" y="1235" />
              <mxPoint x="180" y="1310" />
            </Array>
          </mxGeometry>
        </mxCell>
        <mxCell id="sYOH8Gzn-KAT3bSXsuVM-5" style="edgeStyle=orthogonalEdgeStyle;rounded=0;orthogonalLoop=1;jettySize=auto;html=1;entryX=0;entryY=0.5;entryDx=0;entryDy=0;fontSize=24;" edge="1" parent="1" source="sYOH8Gzn-KAT3bSXsuVM-6" target="sYOH8Gzn-KAT3bSXsuVM-8">
          <mxGeometry relative="1" as="geometry">
            <Array as="points">
              <mxPoint x="180" y="1235" />
              <mxPoint x="180" y="1500" />
            </Array>
          </mxGeometry>
        </mxCell>
        <mxCell id="sYOH8Gzn-KAT3bSXsuVM-6" value="Пользователь" style="verticalLabelPosition=bottom;html=1;verticalAlign=top;align=center;strokeColor=none;fillColor=#00BEF2;shape=mxgraph.azure.user;" vertex="1" parent="1">
          <mxGeometry x="30" y="1190" width="87.5" height="90" as="geometry" />
        </mxCell>
        <mxCell id="sYOH8Gzn-KAT3bSXsuVM-7" value="&lt;font style=&quot;font-size: 18px&quot;&gt;Авторизация&lt;/font&gt;" style="ellipse;whiteSpace=wrap;html=1;fontSize=24;" vertex="1" parent="1">
          <mxGeometry x="210" y="1124" width="160" height="80" as="geometry" />
        </mxCell>
        <mxCell id="sYOH8Gzn-KAT3bSXsuVM-8" value="&lt;font style=&quot;font-size: 18px&quot;&gt;Подготовка отчетности&lt;/font&gt;" style="ellipse;whiteSpace=wrap;html=1;fontSize=24;" vertex="1" parent="1">
          <mxGeometry x="210" y="1460" width="160" height="80" as="geometry" />
        </mxCell>
        <mxCell id="sYOH8Gzn-KAT3bSXsuVM-9" value="&lt;font style=&quot;font-size: 16px&quot;&gt;Подготовительная работа&lt;/font&gt;" style="ellipse;whiteSpace=wrap;html=1;fontSize=24;" vertex="1" parent="1">
          <mxGeometry x="210" y="960" width="160" height="80" as="geometry" />
        </mxCell>
        <mxCell id="sYOH8Gzn-KAT3bSXsuVM-10" value="&lt;font style=&quot;font-size: 18px&quot;&gt;Инфо о патентах&lt;/font&gt;" style="ellipse;whiteSpace=wrap;html=1;fontSize=24;" vertex="1" parent="1">
          <mxGeometry x="210" y="1270" width="160" height="80" as="geometry" />
        </mxCell>
        <mxCell id="sYOH8Gzn-KAT3bSXsuVM-11" style="edgeStyle=orthogonalEdgeStyle;rounded=0;orthogonalLoop=1;jettySize=auto;html=1;entryX=1;entryY=0.5;entryDx=0;entryDy=0;dashed=1;fontSize=24;" edge="1" parent="1" source="sYOH8Gzn-KAT3bSXsuVM-13" target="sYOH8Gzn-KAT3bSXsuVM-9">
          <mxGeometry relative="1" as="geometry">
            <mxPoint x="580" y="980" as="targetPoint" />
          </mxGeometry>
        </mxCell>
        <mxCell id="sYOH8Gzn-KAT3bSXsuVM-12" value="&lt;font style=&quot;font-size: 14px&quot;&gt;Extend&lt;/font&gt;" style="edgeLabel;html=1;align=center;verticalAlign=middle;resizable=0;points=[];fontSize=24;" vertex="1" connectable="0" parent="sYOH8Gzn-KAT3bSXsuVM-11">
          <mxGeometry x="-0.5356" relative="1" as="geometry">
            <mxPoint y="-7" as="offset" />
          </mxGeometry>
        </mxCell>
        <mxCell id="sYOH8Gzn-KAT3bSXsuVM-13" value="&lt;span style=&quot;font-size: 14px&quot;&gt;Изучение списка организаций&lt;/span&gt;" style="ellipse;whiteSpace=wrap;html=1;fontSize=24;fillColor=#dae8fc;strokeColor=#6c8ebf;" vertex="1" parent="1">
          <mxGeometry x="510" y="1000" width="310" height="66" as="geometry" />
        </mxCell>
        <mxCell id="sYOH8Gzn-KAT3bSXsuVM-14" style="edgeStyle=orthogonalEdgeStyle;rounded=0;orthogonalLoop=1;jettySize=auto;html=1;entryX=0.5;entryY=1;entryDx=0;entryDy=0;dashed=1;fontSize=24;" edge="1" parent="1" source="sYOH8Gzn-KAT3bSXsuVM-16" target="sYOH8Gzn-KAT3bSXsuVM-9">
          <mxGeometry relative="1" as="geometry">
            <Array as="points">
              <mxPoint x="500" y="1070" />
              <mxPoint x="290" y="1070" />
            </Array>
          </mxGeometry>
        </mxCell>
        <mxCell id="sYOH8Gzn-KAT3bSXsuVM-15" value="&lt;font style=&quot;font-size: 14px&quot;&gt;Extend&lt;/font&gt;" style="edgeLabel;html=1;align=center;verticalAlign=middle;resizable=0;points=[];fontSize=24;" vertex="1" connectable="0" parent="sYOH8Gzn-KAT3bSXsuVM-14">
          <mxGeometry x="-0.2513" y="-2" relative="1" as="geometry">
            <mxPoint as="offset" />
          </mxGeometry>
        </mxCell>
        <mxCell id="sYOH8Gzn-KAT3bSXsuVM-16" value="&lt;font style=&quot;font-size: 16px&quot;&gt;Изучение сведений о программе&lt;/font&gt;" style="ellipse;whiteSpace=wrap;html=1;fontSize=24;fillColor=#dae8fc;strokeColor=#6c8ebf;" vertex="1" parent="1">
          <mxGeometry x="410" y="1080" width="180" height="70" as="geometry" />
        </mxCell>
        <mxCell id="sYOH8Gzn-KAT3bSXsuVM-17" style="edgeStyle=orthogonalEdgeStyle;rounded=0;orthogonalLoop=1;jettySize=auto;html=1;entryX=0.5;entryY=0;entryDx=0;entryDy=0;dashed=1;fontSize=24;" edge="1" parent="1" source="sYOH8Gzn-KAT3bSXsuVM-19" target="sYOH8Gzn-KAT3bSXsuVM-9">
          <mxGeometry relative="1" as="geometry">
            <Array as="points">
              <mxPoint x="870" y="910" />
              <mxPoint x="290" y="910" />
            </Array>
            <mxPoint x="580" y="920" as="targetPoint" />
          </mxGeometry>
        </mxCell>
        <mxCell id="sYOH8Gzn-KAT3bSXsuVM-18" value="&lt;font style=&quot;font-size: 14px&quot;&gt;Extend&lt;/font&gt;" style="edgeLabel;html=1;align=center;verticalAlign=middle;resizable=0;points=[];fontSize=24;" vertex="1" connectable="0" parent="sYOH8Gzn-KAT3bSXsuVM-17">
          <mxGeometry x="0.1234" y="3" relative="1" as="geometry">
            <mxPoint x="5" y="-13" as="offset" />
          </mxGeometry>
        </mxCell>
        <mxCell id="sYOH8Gzn-KAT3bSXsuVM-19" value="&lt;font style=&quot;font-size: 14px&quot;&gt;Изучение списка сотрудников и их патентов&lt;/font&gt;" style="ellipse;whiteSpace=wrap;html=1;fontSize=24;fillColor=#dae8fc;strokeColor=#6c8ebf;" vertex="1" parent="1">
          <mxGeometry x="740" y="930" width="260" height="70" as="geometry" />
        </mxCell>
        <mxCell id="sYOH8Gzn-KAT3bSXsuVM-32" value="&lt;font style=&quot;font-size: 14px&quot;&gt;Extend&lt;/font&gt;" style="edgeStyle=orthogonalEdgeStyle;rounded=0;orthogonalLoop=1;jettySize=auto;html=1;entryX=1;entryY=0.5;entryDx=0;entryDy=0;dashed=1;" edge="1" parent="1" source="sYOH8Gzn-KAT3bSXsuVM-24" target="sYOH8Gzn-KAT3bSXsuVM-8">
          <mxGeometry relative="1" as="geometry" />
        </mxCell>
        <mxCell id="sYOH8Gzn-KAT3bSXsuVM-24" value="&lt;font style=&quot;font-size: 14px&quot;&gt;Формирование отчета о количестве новых патентов за год&lt;/font&gt;" style="ellipse;whiteSpace=wrap;html=1;fontSize=24;fillColor=#dae8fc;strokeColor=#6c8ebf;" vertex="1" parent="1">
          <mxGeometry x="450" y="1452.5" width="180" height="95" as="geometry" />
        </mxCell>
        <mxCell id="sYOH8Gzn-KAT3bSXsuVM-25" value="&lt;font style=&quot;font-size: 14px&quot;&gt;Include&lt;/font&gt;" style="edgeStyle=orthogonalEdgeStyle;rounded=0;orthogonalLoop=1;jettySize=auto;html=1;entryX=0.5;entryY=0;entryDx=0;entryDy=0;dashed=1;fontSize=14;exitX=0.5;exitY=0;exitDx=0;exitDy=0;" edge="1" parent="1" source="sYOH8Gzn-KAT3bSXsuVM-31" target="sYOH8Gzn-KAT3bSXsuVM-26">
          <mxGeometry relative="1" as="geometry">
            <mxPoint as="offset" />
            <mxPoint x="520" y="1210" as="sourcePoint" />
            <Array as="points">
              <mxPoint x="575" y="1250" />
              <mxPoint x="925" y="1250" />
            </Array>
          </mxGeometry>
        </mxCell>
        <mxCell id="sYOH8Gzn-KAT3bSXsuVM-26" value="&lt;font style=&quot;font-size: 14px&quot;&gt;Печать информации о патентах&lt;/font&gt;" style="ellipse;whiteSpace=wrap;html=1;fontSize=14;fillColor=#dae8fc;strokeColor=#6c8ebf;" vertex="1" parent="1">
          <mxGeometry x="820" y="1270" width="210" height="75" as="geometry" />
        </mxCell>
        <mxCell id="sYOH8Gzn-KAT3bSXsuVM-30" value="&lt;font style=&quot;font-size: 14px&quot;&gt;Extend&lt;/font&gt;" style="edgeStyle=orthogonalEdgeStyle;rounded=0;orthogonalLoop=1;jettySize=auto;html=1;dashed=1;" edge="1" parent="1" source="sYOH8Gzn-KAT3bSXsuVM-31" target="sYOH8Gzn-KAT3bSXsuVM-10">
          <mxGeometry relative="1" as="geometry" />
        </mxCell>
        <mxCell id="sYOH8Gzn-KAT3bSXsuVM-31" value="&lt;font style=&quot;font-size: 14px&quot;&gt;Просмотр данных о патентах&lt;/font&gt;" style="ellipse;whiteSpace=wrap;html=1;fontSize=24;fillColor=#dae8fc;strokeColor=#6c8ebf;" vertex="1" parent="1">
          <mxGeometry x="470" y="1270" width="210" height="80" as="geometry" />
        </mxCell>
        <mxCell id="sYOH8Gzn-KAT3bSXsuVM-36" style="edgeStyle=orthogonalEdgeStyle;rounded=0;orthogonalLoop=1;jettySize=auto;html=1;entryX=0.5;entryY=0;entryDx=0;entryDy=0;dashed=1;" edge="1" parent="1" source="sYOH8Gzn-KAT3bSXsuVM-33" target="sYOH8Gzn-KAT3bSXsuVM-8">
          <mxGeometry relative="1" as="geometry">
            <Array as="points">
              <mxPoint x="740" y="1440" />
              <mxPoint x="290" y="1440" />
            </Array>
          </mxGeometry>
        </mxCell>
        <mxCell id="sYOH8Gzn-KAT3bSXsuVM-39" value="&lt;font style=&quot;font-size: 14px&quot;&gt;Extend&lt;/font&gt;" style="edgeLabel;html=1;align=center;verticalAlign=middle;resizable=0;points=[];" vertex="1" connectable="0" parent="sYOH8Gzn-KAT3bSXsuVM-36">
          <mxGeometry x="0.0671" y="3" relative="1" as="geometry">
            <mxPoint as="offset" />
          </mxGeometry>
        </mxCell>
        <mxCell id="sYOH8Gzn-KAT3bSXsuVM-33" value="&lt;span style=&quot;font-size: 14px&quot;&gt;Печать приказа о вынесении&lt;br&gt;&amp;nbsp;благодарности&lt;/span&gt;" style="ellipse;whiteSpace=wrap;html=1;fontSize=24;fillColor=#dae8fc;strokeColor=#6c8ebf;" vertex="1" parent="1">
          <mxGeometry x="650" y="1452.5" width="180" height="95" as="geometry" />
        </mxCell>
        <mxCell id="sYOH8Gzn-KAT3bSXsuVM-37" style="edgeStyle=orthogonalEdgeStyle;rounded=0;orthogonalLoop=1;jettySize=auto;html=1;entryX=0.5;entryY=1;entryDx=0;entryDy=0;dashed=1;" edge="1" parent="1" source="sYOH8Gzn-KAT3bSXsuVM-34" target="sYOH8Gzn-KAT3bSXsuVM-8">
          <mxGeometry relative="1" as="geometry">
            <Array as="points">
              <mxPoint x="940" y="1568" />
              <mxPoint x="290" y="1568" />
            </Array>
          </mxGeometry>
        </mxCell>
        <mxCell id="sYOH8Gzn-KAT3bSXsuVM-34" value="&lt;span style=&quot;font-size: 14px&quot;&gt;Годовой отчет&lt;/span&gt;" style="ellipse;whiteSpace=wrap;html=1;fontSize=24;fillColor=#dae8fc;strokeColor=#6c8ebf;" vertex="1" parent="1">
          <mxGeometry x="850" y="1452.5" width="180" height="95" as="geometry" />
        </mxCell>
        <mxCell id="sYOH8Gzn-KAT3bSXsuVM-38" style="edgeStyle=orthogonalEdgeStyle;rounded=0;orthogonalLoop=1;jettySize=auto;html=1;entryX=0.5;entryY=1;entryDx=0;entryDy=0;dashed=1;" edge="1" parent="1" source="sYOH8Gzn-KAT3bSXsuVM-35" target="sYOH8Gzn-KAT3bSXsuVM-8">
          <mxGeometry relative="1" as="geometry">
            <Array as="points">
              <mxPoint x="1140" y="1568" />
              <mxPoint x="290" y="1568" />
            </Array>
          </mxGeometry>
        </mxCell>
        <mxCell id="sYOH8Gzn-KAT3bSXsuVM-40" value="&lt;font style=&quot;font-size: 14px&quot;&gt;Extend&lt;/font&gt;" style="edgeLabel;html=1;align=center;verticalAlign=middle;resizable=0;points=[];" vertex="1" connectable="0" parent="sYOH8Gzn-KAT3bSXsuVM-38">
          <mxGeometry x="0.3032" y="1" relative="1" as="geometry">
            <mxPoint as="offset" />
          </mxGeometry>
        </mxCell>
        <mxCell id="sYOH8Gzn-KAT3bSXsuVM-35" value="&lt;span style=&quot;font-size: 14px&quot;&gt;Визитная карточка сотрудника&lt;/span&gt;" style="ellipse;whiteSpace=wrap;html=1;fontSize=24;fillColor=#dae8fc;strokeColor=#6c8ebf;" vertex="1" parent="1">
          <mxGeometry x="1050" y="1452.5" width="180" height="95" as="geometry" />
        </mxCell>
        <mxCell id="sYOH8Gzn-KAT3bSXsuVM-44" style="edgeStyle=orthogonalEdgeStyle;rounded=0;orthogonalLoop=1;jettySize=auto;html=1;dashed=1;" edge="1" parent="1" source="sYOH8Gzn-KAT3bSXsuVM-41">
          <mxGeometry relative="1" as="geometry">
            <mxPoint x="320" y="710" as="targetPoint" />
            <Array as="points">
              <mxPoint x="930" y="690" />
              <mxPoint x="320" y="690" />
            </Array>
          </mxGeometry>
        </mxCell>
        <mxCell id="sYOH8Gzn-KAT3bSXsuVM-41" value="&lt;span style=&quot;font-size: 14px&quot;&gt;Печать приказа о вынесении&lt;br&gt;&amp;nbsp;благодарности&lt;/span&gt;" style="ellipse;whiteSpace=wrap;html=1;fontSize=24;fillColor=#dae8fc;strokeColor=#6c8ebf;" vertex="1" parent="1">
          <mxGeometry x="840" y="702.5" width="180" height="95" as="geometry" />
        </mxCell>
        <mxCell id="sYOH8Gzn-KAT3bSXsuVM-45" style="edgeStyle=orthogonalEdgeStyle;rounded=0;orthogonalLoop=1;jettySize=auto;html=1;entryX=0.5;entryY=0;entryDx=0;entryDy=0;dashed=1;" edge="1" parent="1" source="sYOH8Gzn-KAT3bSXsuVM-42" target="AmRJrW9hrM3cdkwGH1nl-4">
          <mxGeometry relative="1" as="geometry">
            <Array as="points">
              <mxPoint x="1130" y="690" />
              <mxPoint x="320" y="690" />
            </Array>
          </mxGeometry>
        </mxCell>
        <mxCell id="sYOH8Gzn-KAT3bSXsuVM-42" value="&lt;span style=&quot;font-size: 14px&quot;&gt;Годовой отчет&lt;/span&gt;" style="ellipse;whiteSpace=wrap;html=1;fontSize=24;fillColor=#dae8fc;strokeColor=#6c8ebf;" vertex="1" parent="1">
          <mxGeometry x="1040" y="702.5" width="180" height="95" as="geometry" />
        </mxCell>
        <mxCell id="sYOH8Gzn-KAT3bSXsuVM-46" style="edgeStyle=orthogonalEdgeStyle;rounded=0;orthogonalLoop=1;jettySize=auto;html=1;entryX=0.5;entryY=0;entryDx=0;entryDy=0;dashed=1;" edge="1" parent="1" source="sYOH8Gzn-KAT3bSXsuVM-43" target="AmRJrW9hrM3cdkwGH1nl-4">
          <mxGeometry relative="1" as="geometry">
            <Array as="points">
              <mxPoint x="1330" y="690" />
              <mxPoint x="320" y="690" />
            </Array>
          </mxGeometry>
        </mxCell>
        <mxCell id="sYOH8Gzn-KAT3bSXsuVM-43" value="&lt;span style=&quot;font-size: 14px&quot;&gt;Визитная карточка сотрудника&lt;/span&gt;" style="ellipse;whiteSpace=wrap;html=1;fontSize=24;fillColor=#dae8fc;strokeColor=#6c8ebf;" vertex="1" parent="1">
          <mxGeometry x="1240" y="702.5" width="180" height="95" as="geometry" />
        </mxCell>
      </root>
    </mxGraphModel>
  </diagram>
</mxfile>
